HIERARCHY
ROOT Hips
{
 OFFSET 0.000000 0.000000 0.000000
 CHANNELS 6 Xposition Yposition Zposition Yrotation Xrotation Zrotation
 JOINT Chest
 {
  OFFSET 0.000000 9.585900 0.002600
  CHANNELS 3 Yrotation Xrotation Zrotation
  JOINT Chest2
  {
   OFFSET 0.000000 9.601200 -0.005300
   CHANNELS 3 Yrotation Xrotation Zrotation
   JOINT Chest3
   {
    OFFSET 0.000000 9.561800 0.000000
    CHANNELS 3 Yrotation Xrotation Zrotation
    JOINT Chest4
    {
     OFFSET 0.000000 9.552100 0.000000
     CHANNELS 3 Yrotation Xrotation Zrotation
     JOINT Neck
     {
      OFFSET 0.000000 14.453000 0.000000
      CHANNELS 3 Yrotation Xrotation Zrotation
      JOINT Head
      {
       OFFSET 0.000000 8.936500 -0.011300
       CHANNELS 3 Yrotation Xrotation Zrotation
       End Site
       {
        OFFSET 0.000000 17.073600 -0.006000
       }
      }
     }
     JOINT RightCollar
     {
      OFFSET -2.921100 9.558500 0.000000
      CHANNELS 3 Yrotation Xrotation Zrotation
      JOINT RightShoulder
      {
       OFFSET -13.519700 0.000000 0.000000
       CHANNELS 3 Yrotation Xrotation Zrotation
       JOINT RightElbow
       {
        OFFSET 0.000000 -29.696600 0.000000
        CHANNELS 3 Yrotation Xrotation Zrotation
        JOINT RightWrist
        {
         OFFSET 0.000000 -24.004700 0.000000
         CHANNELS 3 Yrotation Xrotation Zrotation
         End Site
         {
          OFFSET 0.000000 -17.728500 0.000000
         }
        }
       }
      }
     }
     JOINT LeftCollar
     {
      OFFSET 2.921100 9.558500 0.000000
      CHANNELS 3 Yrotation Xrotation Zrotation
      JOINT LeftShoulder
      {
       OFFSET 13.519700 0.000000 0.000000
       CHANNELS 3 Yrotation Xrotation Zrotation
       JOINT LeftElbow
       {
        OFFSET 0.000000 -29.696600 0.000000
        CHANNELS 3 Yrotation Xrotation Zrotation
        JOINT LeftWrist
        {
         OFFSET 0.000000 -24.004700 0.000000
         CHANNELS 3 Yrotation Xrotation Zrotation
         End Site
         {
          OFFSET 0.000000 -17.728500 0.000000
         }
        }
       }
      }
     }
    }
   }
  }
 }
 JOINT RightHip
 {
  OFFSET -7.771700 -0.012900 -0.001300
  CHANNELS 3 Yrotation Xrotation Zrotation
  JOINT RightKnee
  {
   OFFSET 0.000000 -40.869800 0.001200
   CHANNELS 3 Yrotation Xrotation Zrotation
   JOINT RightAnkle
   {
    OFFSET 0.000000 -39.717900 0.002100
    CHANNELS 3 Yrotation Xrotation Zrotation
    JOINT RightToe
    {
     OFFSET 0.000000 -4.965400 11.033500
     CHANNELS 3 Yrotation Xrotation Zrotation
     End Site
     {
      OFFSET 0.000000 -1.423100 5.872300
     }
    }
   }
  }
 }
 JOINT LeftHip
 {
  OFFSET 7.771700 -0.012900 -0.001300
  CHANNELS 3 Yrotation Xrotation Zrotation
  JOINT LeftKnee
  {
   OFFSET 0.000000 -40.869800 0.001200
   CHANNELS 3 Yrotation Xrotation Zrotation
   JOINT LeftAnkle
   {
    OFFSET 0.000000 -39.717900 0.002100
    CHANNELS 3 Yrotation Xrotation Zrotation
    JOINT LeftToe
    {
     OFFSET 0.000000 -4.965400 11.033500
     CHANNELS 3 Yrotation Xrotation Zrotation
     End Site
     {
      OFFSET 0.000000 -1.423100 5.872300
     }
    }
   }
  }
 }
}
MOTION
Frames: 12
Frame Time: 0.008333
-25.684596 50.210366 27.129578 162.425311 -10.905237 -0.615108 3.066973 9.743992 0.648295 0.168852 0.601224 -0.016834 0.292549 1.027476 -0.028542 2.570200 9.072118 -0.069690 3.538216 18.563799 0.785146 6.235770 -1.278396 0.311673 1.969400 4.214906 -1.099584 -5.764567 -13.857859 -9.688150 -48.870610 -70.842380 75.961452 -4.014845 -2.903271 -23.659844 -2.242303 0.421605 2.231340 19.752781 -5.624727 1.975387 54.303687 -77.252147 -81.172186 2.340020 5.065507 15.210670 -0.229141 -70.061582 -0.530796 -126.360540 81.518903 -126.943157 -4.501817 -15.823392 2.462318 -0.201114 0.722803 -0.086107 -11.166693 -73.077802 29.470381 115.431942 78.884582 112.727973 -16.084410 -22.956276 0.169912 -0.337834 -0.914793 -0.160845
-25.685412 50.210218 27.128799 162.434094 -10.905985 -0.612570 3.059565 9.741056 0.644565 0.166899 0.601420 -0.017650 0.294699 1.027091 -0.027331 2.568935 9.075422 -0.069973 3.535608 18.568585 0.786702 6.226189 -1.258473 0.315974 1.976136 4.216568 -1.102049 -5.751432 -13.866156 -9.695857 -48.871520 -70.835455 75.959334 -4.003674 -2.895306 -23.628121 -2.240148 0.423655 2.232895 19.749802 -5.623155 1.973925 54.291994 -77.248442 -81.173396 2.338246 5.069032 15.205271 -0.209192 -70.062203 -0.550479 -126.367978 81.514285 -126.953444 -4.504452 -15.823114 2.472295 -0.204884 0.721096 -0.088289 -11.168978 -73.075610 29.465111 115.437002 78.884257 112.726128 -16.094607 -22.960712 0.175638 -0.337166 -0.915011 -0.159336
-25.685880 50.209938 27.128006 162.441427 -10.906357 -0.612682 3.057023 9.738216 0.644040 0.167881 0.597754 -0.016649 0.291863 1.031148 -0.028004 2.568727 9.072486 -0.064732 3.530717 18.577976 0.785583 6.224009 -1.251231 0.313561 1.986901 4.220613 -1.114249 -5.758165 -13.870450 -9.688324 -48.850735 -70.833415 75.949492 -3.999703 -2.888043 -23.614463 -2.245789 0.428187 2.228517 19.751037 -5.619311 1.974242 54.285367 -77.243173 -81.179206 2.339549 5.083734 15.190898 -0.198052 -70.062633 -0.561268 -126.368105 81.509790 -126.952520 -4.509994 -15.824689 2.475527 -0.202801 0.721380 -0.086926 -11.175263 -73.074942 29.465497 115.454276 78.885829 112.738935 -16.098702 -22.964406 0.180148 -0.343501 -0.920450 -0.158320
-25.687140 50.209522 27.127103 162.449000 -10.904976 -0.609144 3.051881 9.735719 0.639308 0.171886 0.596102 -0.016478 0.286044 1.033365 -0.028052 2.578622 9.066618 -0.065355 3.522837 18.588594 0.788278 6.221108 -1.245401 0.315607 1.981531 4.225486 -1.114829 -5.758468 -13.872899 -9.685129 -48.837212 -70.830686 75.940569 -3.998231 -2.884594 -23.609586 -2.258254 0.433580 2.232870 19.748983 -5.614415 1.971460 54.276520 -77.238494 -81.180002 2.334862 5.081159 15.198457 -0.180987 -70.065472 -0.580948 -126.379645 81.506728 -126.963319 -4.516828 -15.827065 2.477582 -0.199671 0.721017 -0.085550 -11.171293 -73.077542 29.455987 115.471358 78.888306 112.755181 -16.119842 -22.963786 0.184623 -0.350964 -0.928377 -0.156918
-25.687855 50.209168 27.125940 162.455824 -10.905413 -0.609215 3.048536 9.734900 0.638675 0.171049 0.596636 -0.016163 0.290281 1.031354 -0.028442 2.579613 9.067429 -0.065418 3.518410 18.595422 0.789710 6.216068 -1.231628 0.318603 1.977511 4.225271 -1.115015 -5.754844 -13.874340 -9.685325 -48.831167 -70.825225 75.936807 -3.995093 -2.881989 -23.606944 -2.260771 0.434071 2.235918 19.739222 -5.611337 1.968312 54.269742 -77.237299 -81.174980 2.337995 5.080589 15.192222 -0.175933 -70.066467 -0.588475 -126.399119 81.503806 -126.986153 -4.512624 -15.827954 2.485226 -0.206805 0.717957 -0.089609 -11.177274 -73.077728 29.463818 115.484306 78.886210 112.762588 -16.140780 -22.961956 0.186546 -0.340807 -0.935103 -0.149497
-25.688506 50.208752 27.125452 162.458199 -10.901652 -0.611277 3.049901 9.730383 0.641971 0.169434 0.597078 -0.016858 0.299672 1.030460 -0.028192 2.578732 9.066522 -0.067071 3.515072 18.602676 0.792607 6.210564 -1.209135 0.323563 1.970525 4.223837 -1.113207 -5.747572 -13.871967 -9.685834 -48.830609 -70.825353 75.947997 -3.993547 -2.875730 -23.607931 -2.266516 0.436024 2.239093 19.731634 -5.611391 1.965834 54.254284 -77.233689 -81.163543 2.339155 5.080667 15.176118 -0.175915 -70.070945 -0.588354 -126.401014 81.502502 -126.987043 -4.510960 -15.828730 2.486205 -0.206914 0.715262 -0.091153 -11.147067 -73.082325 29.448357 115.484635 78.896171 112.764906 -16.157370 -22.973228 0.179634 -0.357019 -0.926570 -0.135006
-25.689997 50.208357 27.125162 162.469143 -10.894923 -0.611934 3.043573 9.723077 0.641014 0.169661 0.596722 -0.016899 0.299050 1.031614 -0.028180 2.587688 9.065373 -0.067884 3.516441 18.609671 0.794705 6.197476 -1.212193 0.329108 1.961252 4.220542 -1.112147 -5.738770 -13.866363 -9.684475 -48.828814 -70.826736 75.950916 -3.995290 -2.864099 -23.573883 -2.276485 0.437374 2.243789 19.727918 -5.611279 1.963298 54.212054 -77.230053 -81.128680 2.339336 5.068679 15.155436 -0.176222 -70.078111 -0.597532 -126.418507 81.502415 -127.004335 -4.511115 -15.831352 2.489100 -0.209497 0.715793 -0.092666 -11.150884 -73.089235 29.443029 115.482273 78.896007 112.758014 -16.140959 -22.976893 0.177126 -0.348659 -0.924044 -0.133620
-25.692486 50.208178 27.124085 162.484477 -10.890939 -0.607779 3.038755 9.721691 0.636011 0.169887 0.596581 -0.017053 0.293493 1.030471 -0.028300 2.593121 9.064073 -0.068858 3.510325 18.611385 0.797820 6.190795 -1.204395 0.336223 1.954141 4.217640 -1.111417 -5.731802 -13.862479 -9.684030 -48.819839 -70.830899 75.958253 -3.994437 -2.863686 -23.582659 -2.276835 0.436854 2.244412 19.713825 -5.608969 1.961743 54.193787 -77.230414 -81.125108 2.337344 5.060946 15.161768 -0.168225 -70.082441 -0.621371 -126.448512 81.501059 -127.035311 -4.512010 -15.836849 2.490842 -0.213222 0.717004 -0.092310 -11.100791 -73.095235 29.387448 115.454007 78.897991 112.727426 -16.143370 -22.990129 0.187594 -0.317877 -0.910568 -0.130991
-25.694480 50.208370 27.121911 162.482379 -10.894695 -0.602611 3.048065 9.726817 0.632758 0.172541 0.596869 -0.018254 0.291428 1.029921 -0.027158 2.591710 9.063258 -0.071037 3.508321 18.612223 0.801670 6.186079 -1.193708 0.345281 1.949347 4.216230 -1.108525 -5.727370 -13.861612 -9.684904 -48.824206 -70.837489 75.966493 -3.996410 -2.859501 -23.583253 -2.276895 0.434491 2.249621 19.699250 -5.609291 1.957791 54.189528 -77.233210 -81.119107 2.339126 5.061929 15.164047 -0.149161 -70.079403 -0.639577 -126.461387 81.500685 -127.047527 -4.512471 -15.838941 2.489215 -0.214553 0.716181 -0.092091 -11.047553 -73.092875 29.344923 115.468056 78.896333 112.738226 -16.146419 -23.005708 0.199104 -0.323390 -0.902782 -0.133581
-25.696567 50.208475 27.120858 162.484872 -10.892223 -0.601061 3.049680 9.725490 0.629011 0.169344 0.595924 -0.016716 0.295611 1.031120 -0.029350 2.591148 9.063260 -0.071543 3.511456 18.615654 0.802990 6.182792 -1.193875 0.351633 1.948374 4.208719 -1.107436 -5.728685 -13.855014 -9.682191 -48.828018 -70.844205 75.977628 -4.000602 -2.857644 -23.590575 -2.268665 0.431633 2.257231 19.682593 -5.610791 1.954561 54.186671 -77.233204 -81.112974 2.338266 5.060558 15.160851 -0.153113 -70.083902 -0.639802 -126.470348 81.498857 -127.059473 -4.511078 -15.836168 2.488882 -0.216789 0.712299 -0.092416 -10.995977 -73.100172 29.302335 115.477562 78.904798 112.755022 -16.162505 -23.015738 0.206149 -0.293808 -0.897809 -0.125938
-25.699394 50.208773 27.118943 162.496568 -10.893979 -0.596568 3.038928 9.729007 0.622105 0.168596 0.594587 -0.017271 0.297933 1.032987 -0.029052 2.592318 9.063071 -0.072951 3.510249 18.616278 0.804558 6.186176 -1.189981 0.354735 1.950387 4.203834 -1.106949 -5.734249 -13.850968 -9.680430 -48.828300 -70.849752 75.989159 -4.003543 -2.855145 -23.585550 -2.264277 0.427303 2.262565 19.670767 -5.612380 1.953938 54.183858 -77.232171 -81.106155 2.338318 5.060244 15.157342 -0.151773 -70.082148 -0.652555 -126.485059 81.495233 -127.080281 -4.512256 -15.841272 2.493756 -0.218070 0.713583 -0.092839 -10.978868 -73.099835 29.275181 115.495953 78.906823 112.768177 -16.165002 -23.018461 0.212931 -0.309614 -0.901556 -0.128751
-25.702533 50.208887 27.118211 162.502585 -10.889212 -0.592281 3.032673 9.725267 0.616447 0.170487 0.596632 -0.017443 0.298963 1.031756 -0.028899 2.593593 9.062410 -0.072858 3.506403 18.616187 0.804941 6.192211 -1.186502 0.355771 1.946474 4.202575 -1.106608 -5.731577 -13.850940 -9.683021 -48.831222 -70.852182 75.999300 -3.993320 -2.851381 -23.566573 -2.270349 0.428512 2.262600 19.672487 -5.621220 1.955113 54.222137 -77.230616 -81.142490 2.338966 5.070299 15.152258 -0.144794 -70.087069 -0.666798 -126.493293 81.495812 -127.089231 -4.518297 -15.845545 2.493205 -0.213540 0.716190 -0.092002 -10.956517 -73.106119 29.251416 115.514579 78.913906 112.783162 -16.174654 -23.023565 0.220419 -0.315821 -0.902286 -0.128550
